<svg xmlns="http://www.w3.org/2000/svg" viewBox="0 0 24 24" fill="currentColor">
  <path d="M10.59 15.41l2.82-2.82-2.82-2.82L13.41 8l2.82 2.82 2.82 2.82-2.82 2.82-2.82 2.82L13.41 16l-2.82-2.82zM12 4.5C7 4.5 2.73 7.61 1 12c1.73 4.39 6 7.5 11 7.5s9.27-3.11 11-7.5c-1.73-4.39-6-7.5-11-7.5zM3.79 6.42L7.57 10.2c-1.95 1.24-3.27 3.21-3.79 5.58L6.42 17.21c.52 2.37 1.84 4.34 3.79 5.58l3.78-3.78C11.53 18.27 12.24 18.5 13 18.5c2.76 0 5-2.24 5-5 0-.76-.23-1.47-.64-2.05l3.78-3.78C20.21 7.61 15.94 4.5 12 4.5c-.76 0-1.47.23-2.05.64L3.79 6.42z"/>
</svg>
